<svg width="117" height="116" viewBox="0 0 117 116" fill="none" xmlns="http://www.w3.org/2000/svg">
<path d="M60.2433 85.0875L61.3529 82.9537C59.1872 81.8275 56.5989 81.8727 54.4738 83.0739L46.2861 87.7017C44.5909 87.3353 42.7426 87.4476 41.1387 88.0409L31.8427 91.4796C30.4284 92.0028 29.2157 92.8564 28.4979 94.0849C27.752 95.3614 27.6822 96.816 28.202 98.1093C29.2018 100.597 31.9983 101.922 35.0009 101.922H83.2623C86.3116 101.922 89.1481 100.558 90.103 98.0016C90.5984 96.6753 90.4753 95.2074 89.6825 93.9455C88.9201 92.7319 87.6693 91.9016 86.216 91.407L76.1116 87.9683C74.4088 87.3888 72.4524 87.337 70.7027 87.8156L61.3529 82.9537L60.2433 85.0875Z" fill="#F9FCF8" stroke="#348E2B" stroke-width="4.81016"/>
<path d="M65.601 32.892C60.8666 39.96 59.7809 48.5843 61.9518 56.2903C69.5054 55.8016 76.8067 51.8463 81.5232 44.8049C86.2575 37.7368 87.3432 29.1125 85.1723 21.4065C77.6188 21.8952 70.3174 25.8506 65.601 32.892Z" fill="#70D767" stroke="#70D767" stroke-width="3.4983"/>
<path d="M61.0309 52.9119C61.0983 51.2808 62.1304 49.5388 63.1066 48.1995C65.015 45.5811 67.5764 43.4688 69.8203 41.0963C71.6552 39.1563 73.9501 37.5819 75.7653 35.6482C76.3791 34.9943 77.4424 34.4322 77.8665 33.6713" stroke="#348E2B" stroke-width="4.81016" stroke-linecap="round"/>
<path d="M62.4371 64.4762L63.7116 64.5728L64.1909 63.3879C68.4215 52.9274 67.9685 40.5761 61.915 30.1608C55.8568 19.7376 45.5659 13.6287 34.6969 12.8046L33.4223 12.708L32.9431 13.8929C28.7125 24.3534 29.1654 36.7047 35.219 47.12C41.2771 57.5432 51.5681 63.6521 62.4371 64.4762Z" fill="#70D767" stroke="#F9FCF8" stroke-width="3.4983"/>
<path d="M49.6344 38.8484C50.2275 39.3966 50.6595 40.1457 51.1294 40.7942C52.4926 42.6752 53.9061 44.5509 55.1358 46.523C56.2518 48.3126 57.2336 50.1434 58.1679 52.0304C59.8194 55.3658 61.5909 59.3792 61.5227 63.1758C61.4757 65.7955 61.4549 68.3215 61.02 70.9193C60.7638 72.4493 60.4876 73.9654 60.1879 75.4856C59.9819 76.5305 59.9279 77.6158 59.6742 78.6422C59.5879 78.9908 59.1534 80.5433 59.4362 80.7927" stroke="#348E2B" stroke-width="4.81016" stroke-linecap="round"/>
<path d="M49.7408 37.5548C49.7408 36.7645 49.9564 36.0057 50.1229 35.2388C50.2167 34.8069 50.2951 34.373 50.3931 33.9419C50.5276 33.35 50.5452 32.741 50.6768 32.1489C50.8196 31.5066 50.9123 30.8578 51.0744 30.2189C51.153 29.909 51.2169 29.5952 51.2848 29.2829C51.3113 29.1609 51.3736 29.0304 51.3736 28.9046" stroke="#348E2B" stroke-width="4.81016" stroke-linecap="round"/>
<path d="M48.9418 38.3884C48.4339 38.3689 47.931 38.1074 47.4364 38.0063C46.8137 37.879 46.1916 37.7315 45.572 37.5894C45.1177 37.4852 44.6829 37.2929 44.2442 37.1378C44.0093 37.0547 43.7625 37.0032 43.5243 36.9293C43.4139 36.8951 43.2927 36.8251 43.175 36.8251" stroke="#348E2B" stroke-width="4.81016" stroke-linecap="round"/>
</svg>
