<svg width="117" height="116" viewBox="0 0 117 116" fill="none" xmlns="http://www.w3.org/2000/svg">
<path d="M73.0885 75.8452C83.0888 70.6334 89.9241 60.168 89.9241 48.1017C89.9241 30.834 75.9258 16.8357 58.658 16.8357C41.3902 16.8357 27.3919 30.834 27.3919 48.1017C27.3919 60.168 34.227 70.6332 44.2275 75.8452V86.583C44.2275 90.5679 47.4579 93.7983 51.4428 93.7983H65.8732C69.8581 93.7983 73.0885 90.5679 73.0885 86.583V75.8452Z" stroke="#348E2B" stroke-width="4.81016"/>
<path d="M58.6583 60.1271L58.6583 81.7729" stroke="#348E2B" stroke-width="4.81016" stroke-linecap="round"/>
<path d="M57.5682 57.7523L59.3256 57.7734L59.8796 56.1054C60.985 52.7769 60.6058 48.9432 58.5071 45.81C56.4014 42.6662 53.0278 40.9284 49.5508 40.8867L47.7933 40.8657L47.2394 42.5336C46.134 45.8622 46.5132 49.6959 48.6118 52.8291C50.7176 55.9728 54.0912 57.7107 57.5682 57.7523Z" fill="#70D767" stroke="#348E2B" stroke-width="4.81016"/>
<path d="M61.5761 57.7523L59.8187 57.7734L59.2648 56.1054C58.1594 52.7769 58.5386 48.9432 60.6372 45.81C62.743 42.6662 66.1166 40.9284 69.5936 40.8867L71.351 40.8657L71.905 42.5336C73.0104 45.8622 72.6312 49.6959 70.5325 52.8291C68.4268 55.9728 65.0532 57.7107 61.5761 57.7523Z" fill="#70D767" stroke="#348E2B" stroke-width="4.81016"/>
<path d="M46.6327 84.178H70.6835" stroke="#348E2B" stroke-width="4.81016" stroke-linecap="round"/>
</svg>
