<svg width="117" height="116" viewBox="0 0 117 116" fill="none" xmlns="http://www.w3.org/2000/svg">
<path d="M44.1735 82.2193L44.1763 82.2123L44.179 82.2053C44.6154 81.0735 45.4709 80.4515 46.2652 80.3118C47.0145 80.18 47.8367 80.4475 48.4177 81.4065C49.6113 83.3767 52.3184 83.8309 54.139 82.4572L58.924 78.8467L58.9767 78.8069L59.0247 78.7615L59.9155 77.9214L59.1054 77.0625L59.9155 77.9214C64.0944 73.9799 70.9559 75.7941 72.6385 81.0841L72.6512 81.1241L72.6667 81.1632L73.7307 83.8437C74.0367 84.6148 74.3853 85.3923 74.7229 86.1453C74.7897 86.2943 74.8561 86.4424 74.9216 86.5893C75.3247 87.4926 75.7023 88.3644 76.005 89.229C76.6117 90.9624 76.8698 92.5409 76.4665 94.0624C76.4346 94.1826 76.3888 94.2984 76.3304 94.4064L77.3883 94.9783L76.3304 94.4064C75.9871 95.0414 75.828 95.3161 75.645 95.5557C75.463 95.794 75.2343 96.0274 74.7005 96.5309C73.2552 97.8941 71.5431 98.6083 69.5129 98.6083H47.8672C47.335 98.6083 46.935 98.5945 46.6054 98.5615C45.1629 98.4171 43.645 97.6918 42.4911 96.6057C41.3362 95.5186 40.6519 94.176 40.6519 92.851V92.5426C40.6519 91.18 41.171 89.7821 41.7712 88.225L44.1735 82.2193Z" fill="#70D767" stroke="#F9FCF8" stroke-width="2.40508"/>
<path d="M38.0254 88.1227L38.065 88.0423L38.0984 87.9591L42.7195 76.474C44.5189 72.0021 44.7865 67.1108 43.4804 62.4849L40.3551 51.4165C38.7382 45.69 40.2456 39.5625 44.4599 35.0305L54.6937 24.0251C54.7569 24.0419 54.8346 24.0645 54.9292 24.0946C55.0888 24.1454 55.2493 24.2015 55.4497 24.2715C55.4937 24.2869 55.5396 24.3029 55.5879 24.3198C55.8379 24.4069 56.1373 24.5096 56.4544 24.6021C57.0515 24.7764 57.8242 24.9501 58.6901 24.9224C59.5559 24.9501 60.3285 24.7764 60.9256 24.6022C61.2427 24.5097 61.5421 24.407 61.7921 24.3199C61.8403 24.3031 61.8862 24.2871 61.9302 24.2717C62.1306 24.2017 62.2912 24.1456 62.4507 24.0948C62.5453 24.0647 62.6231 24.0422 62.6862 24.0253L72.9202 35.0309C77.1344 39.5629 78.6418 45.6904 77.0249 51.4168L73.8996 62.4852C72.5935 67.1111 72.8611 72.0024 74.6605 76.4744L79.2816 87.9595L79.315 88.0426L79.3546 88.1231C82.4948 94.5085 77.61 102.26 69.3926 102.26L58.69 102.26H47.9874C39.77 102.26 34.8852 94.5081 38.0254 88.1227Z" stroke="#348E2B" stroke-width="4.81016"/>
<rect x="51.4747" y="12.0256" width="14.4305" height="7.21524" rx="2.40508" fill="#70D767"/>
</svg>
