<svg width="116" height="116" viewBox="0 0 116 116" fill="none" xmlns="http://www.w3.org/2000/svg">
<path d="M23.5044 88.2863L14.808 28.8612H100.636L91.9394 88.2863C90.7771 96.2282 83.9655 102.116 75.939 102.116H39.5047C31.4783 102.116 24.6666 96.2282 23.5044 88.2863Z" fill="#F9FCF8" stroke="#348E2B" stroke-width="4.81016" stroke-linecap="round"/>
<path d="M58.908 84.1778L57.1506 84.1989L56.5967 82.5309C54.259 75.4918 55.069 67.4007 59.4859 60.8065C63.9098 54.2019 70.9571 50.5936 78.1818 50.507L79.9392 50.486L80.4931 52.1539C82.8308 59.193 82.0208 67.2842 77.6039 73.8783L75.6057 72.5398L77.6039 73.8783C73.18 80.483 66.1327 84.0912 58.908 84.1778Z" fill="#70D767" stroke="#348E2B" stroke-width="4.81016"/>
<path d="M52.2788 72.6585C55.3429 77.233 56.184 82.7658 55.0164 87.8282C50.2059 87.2481 45.619 84.596 42.5817 80.0614C39.5176 75.4869 38.6765 69.9541 39.8441 64.8918C44.6545 65.4718 49.2414 68.1239 52.2788 72.6585Z" fill="#70D767" stroke="#348E2B" stroke-width="4.81016"/>
<path d="M59.0614 93.7983C59.0614 93.7983 56.0474 90.0079 59.0614 83.8917C62.0754 77.7756 64.5083 72.3773 69.7473 69.7474" stroke="#348E2B" stroke-width="4.81016" stroke-linecap="round"/>
<ellipse cx="57.7218" cy="26.456" rx="16.8356" ry="45.6966" transform="rotate(90 57.7218 26.456)" fill="#F9FCF8"/>
<path fill-rule="evenodd" clip-rule="evenodd" d="M15.0258 32.4688C21.5959 38.7974 38.2343 43.2916 57.7218 43.2916C77.2093 43.2916 93.8478 38.7974 100.418 32.4688C93.8478 26.1401 77.2093 21.646 57.7218 21.646C38.2343 21.646 21.5959 26.1401 15.0258 32.4688Z" fill="#70D767"/>
<path d="M57.7218 41.4878C45.3151 41.4878 34.1901 39.5979 26.254 36.6218C22.277 35.1305 19.2257 33.4127 17.2119 31.6272C15.1952 29.8392 14.4304 28.1878 14.4304 26.7566C14.4304 25.3254 15.1952 23.674 17.2119 21.8861C19.2257 20.1006 22.277 18.3828 26.254 16.8914C34.1901 13.9154 45.3151 12.0255 57.7218 12.0255C70.1285 12.0255 81.2536 13.9154 89.1897 16.8914C93.1666 18.3828 96.2179 20.1006 98.2318 21.8861C100.248 23.674 101.013 25.3254 101.013 26.7566C101.013 28.1878 100.248 29.8392 98.2318 31.6272C96.2179 33.4127 93.1666 35.1305 89.1897 36.6218C81.2536 39.5979 70.1285 41.4878 57.7218 41.4878Z" stroke="#348E2B" stroke-width="4.81016"/>
</svg>
